<svg version="1.1" xmlns="http://www.w3.org/2000/svg" viewBox="0 0 427.0234375 427.0234375" width="427.0234375" height="427.0234375">
  <!-- svg-source:excalidraw -->
  
  <defs>
    <style class="style-fonts">
      @font-face {
        font-family: "Virgil";
        src: url("https://excalidraw.com/Virgil.woff2");
      }
      @font-face {
        font-family: "Cascadia";
        src: url("https://excalidraw.com/Cascadia.woff2");
      }
    </style>
    
  </defs>
  <g stroke-linecap="round" transform="translate(10 10) rotate(0 203.51171875 203.51171875)"><path d="M0 0 L407.02 0 L407.02 407.02 L0 407.02" stroke="none" stroke-width="0" fill="#1e1e1e"></path><path d="M0 0 C121.4 0, 242.81 0, 407.02 0 M0 0 C108.53 0, 217.05 0, 407.02 0 M407.02 0 C407.02 109.95, 407.02 219.91, 407.02 407.02 M407.02 0 C407.02 161.55, 407.02 323.1, 407.02 407.02 M407.02 407.02 C293.83 407.02, 180.63 407.02, 0 407.02 M407.02 407.02 C302.01 407.02, 197 407.02, 0 407.02 M0 407.02 C0 248.1, 0 89.17, 0 0 M0 407.02 C0 280.61, 0 154.21, 0 0" stroke="transparent" stroke-width="1" fill="none"></path></g><g stroke-linecap="round" transform="translate(23.62890625 23.62890625) rotate(0 189.8828125 189.8828125)"><path d="M379.77 189.88 C379.77 194.4, 379.6 198.93, 379.28 203.43 C378.96 207.93, 378.48 212.44, 377.83 216.91 C377.19 221.38, 376.39 225.83, 375.43 230.25 C374.47 234.66, 373.35 239.05, 372.07 243.38 C370.8 247.71, 369.37 252.01, 367.79 256.24 C366.22 260.47, 364.48 264.66, 362.61 268.76 C360.73 272.87, 358.7 276.92, 356.54 280.88 C354.37 284.85, 352.06 288.74, 349.62 292.54 C347.18 296.34, 344.6 300.06, 341.89 303.68 C339.19 307.29, 336.34 310.82, 333.39 314.23 C330.43 317.64, 327.34 320.96, 324.15 324.15 C320.96 327.34, 317.64 330.43, 314.23 333.39 C310.82 336.34, 307.29 339.19, 303.68 341.89 C300.06 344.6, 296.34 347.18, 292.54 349.62 C288.74 352.06, 284.85 354.37, 280.88 356.54 C276.92 358.7, 272.87 360.73, 268.76 362.61 C264.66 364.48, 260.47 366.22, 256.24 367.79 C252.01 369.37, 247.71 370.8, 243.38 372.07 C239.05 373.35, 234.66 374.47, 230.25 375.43 C225.83 376.39, 221.38 377.19, 216.91 377.83 C212.44 378.48, 207.93 378.96, 203.43 379.28 C198.93 379.6, 194.4 379.77, 189.88 379.77 C185.37 379.77, 180.84 379.6, 176.34 379.28 C171.83 378.96, 167.33 378.48, 162.86 377.83 C158.39 377.19, 153.93 376.39, 149.52 375.43 C145.11 374.47, 140.72 373.35, 136.39 372.07 C132.05 370.8, 127.76 369.37, 123.53 367.79 C119.29 366.22, 115.11 364.48, 111 362.61 C106.9 360.73, 102.84 358.7, 98.88 356.54 C94.92 354.37, 91.02 352.06, 87.22 349.62 C83.43 347.18, 79.71 344.6, 76.09 341.89 C72.48 339.19, 68.95 336.34, 65.54 333.39 C62.12 330.43, 58.81 327.34, 55.62 324.15 C52.42 320.96, 49.34 317.64, 46.38 314.23 C43.42 310.82, 40.58 307.29, 37.87 303.68 C35.17 300.06, 32.58 296.34, 30.14 292.54 C27.7 288.74, 25.39 284.85, 23.23 280.88 C21.06 276.92, 19.04 272.87, 17.16 268.76 C15.28 264.66, 13.55 260.47, 11.97 256.24 C10.39 252.01, 8.96 247.71, 7.69 243.38 C6.42 239.05, 5.3 234.66, 4.34 230.25 C3.38 225.83, 2.58 221.38, 1.93 216.91 C1.29 212.44, 0.81 207.93, 0.48 203.43 C0.16 198.93, 0 194.4, 0 189.88 C0 185.37, 0.16 180.84, 0.48 176.34 C0.81 171.83, 1.29 167.33, 1.93 162.86 C2.58 158.39, 3.38 153.93, 4.34 149.52 C5.3 145.11, 6.42 140.72, 7.69 136.39 C8.96 132.05, 10.39 127.76, 11.97 123.53 C13.55 119.29, 15.28 115.11, 17.16 111 C19.04 106.9, 21.06 102.84, 23.23 98.88 C25.39 94.92, 27.7 91.02, 30.14 87.22 C32.58 83.43, 35.17 79.71, 37.87 76.09 C40.58 72.48, 43.42 68.95, 46.38 65.54 C49.34 62.12, 52.42 58.81, 55.62 55.62 C58.81 52.42, 62.12 49.34, 65.54 46.38 C68.95 43.42, 72.48 40.58, 76.09 37.87 C79.71 35.17, 83.43 32.58, 87.22 30.14 C91.02 27.7, 94.92 25.39, 98.88 23.23 C102.84 21.06, 106.9 19.04, 111 17.16 C115.11 15.28, 119.29 13.55, 123.53 11.97 C127.76 10.39, 132.05 8.96, 136.39 7.69 C140.72 6.42, 145.11 5.3, 149.52 4.34 C153.93 3.38, 158.39 2.58, 162.86 1.93 C167.33 1.29, 171.83 0.81, 176.34 0.48 C180.84 0.16, 185.37 0, 189.88 0 C194.4 0, 198.93 0.16, 203.43 0.48 C207.93 0.81, 212.44 1.29, 216.91 1.93 C221.38 2.58, 225.83 3.38, 230.25 4.34 C234.66 5.3, 239.05 6.42, 243.38 7.69 C247.71 8.96, 252.01 10.39, 256.24 11.97 C260.47 13.55, 264.66 15.28, 268.76 17.16 C272.87 19.04, 276.92 21.06, 280.88 23.23 C284.85 25.39, 288.74 27.7, 292.54 30.14 C296.34 32.58, 300.06 35.17, 303.68 37.87 C307.29 40.58, 310.82 43.42, 314.23 46.38 C317.64 49.34, 320.96 52.42, 324.15 55.62 C327.34 58.81, 330.43 62.12, 333.39 65.54 C336.34 68.95, 339.19 72.48, 341.89 76.09 C344.6 79.71, 347.18 83.43, 349.62 87.22 C352.06 91.02, 354.37 94.92, 356.54 98.88 C358.7 102.84, 360.73 106.9, 362.61 111 C364.48 115.11, 366.22 119.29, 367.79 123.53 C369.37 127.76, 370.8 132.05, 372.07 136.39 C373.35 140.72, 374.47 145.11, 375.43 149.52 C376.39 153.93, 377.19 158.39, 377.83 162.86 C378.48 167.33, 378.96 171.83, 379.28 176.34 C379.6 180.84, 379.77 185.37, 379.77 189.88" stroke="none" stroke-width="0" fill="#ffffff"></path><path d="M379.77 189.88 C379.77 194.4, 379.6 198.93, 379.28 203.43 C378.96 207.93, 378.48 212.44, 377.83 216.91 C377.19 221.38, 376.39 225.83, 375.43 230.25 C374.47 234.66, 373.35 239.05, 372.07 243.38 C370.8 247.71, 369.37 252.01, 367.79 256.24 C366.22 260.47, 364.48 264.66, 362.61 268.76 C360.73 272.87, 358.7 276.92, 356.54 280.88 C354.37 284.85, 352.06 288.74, 349.62 292.54 C347.18 296.34, 344.6 300.06, 341.89 303.68 C339.19 307.29, 336.34 310.82, 333.39 314.23 C330.43 317.64, 327.34 320.96, 324.15 324.15 C320.96 327.34, 317.64 330.43, 314.23 333.39 C310.82 336.34, 307.29 339.19, 303.68 341.89 C300.06 344.6, 296.34 347.18, 292.54 349.62 C288.74 352.06, 284.85 354.37, 280.88 356.54 C276.92 358.7, 272.87 360.73, 268.76 362.61 C264.66 364.48, 260.47 366.22, 256.24 367.79 C252.01 369.37, 247.71 370.8, 243.38 372.07 C239.05 373.35, 234.66 374.47, 230.25 375.43 C225.83 376.39, 221.38 377.19, 216.91 377.83 C212.44 378.48, 207.93 378.96, 203.43 379.28 C198.93 379.6, 194.4 379.77, 189.88 379.77 C185.37 379.77, 180.84 379.6, 176.34 379.28 C171.83 378.96, 167.33 378.48, 162.86 377.83 C158.39 377.19, 153.93 376.39, 149.52 375.43 C145.11 374.47, 140.72 373.35, 136.39 372.07 C132.05 370.8, 127.76 369.37, 123.53 367.79 C119.29 366.22, 115.11 364.48, 111 362.61 C106.9 360.73, 102.84 358.7, 98.88 356.54 C94.92 354.37, 91.02 352.06, 87.22 349.62 C83.43 347.18, 79.71 344.6, 76.09 341.89 C72.48 339.19, 68.95 336.34, 65.54 333.39 C62.12 330.43, 58.81 327.34, 55.62 324.15 C52.42 320.96, 49.34 317.64, 46.38 314.23 C43.42 310.82, 40.58 307.29, 37.87 303.68 C35.17 300.06, 32.58 296.34, 30.14 292.54 C27.7 288.74, 25.39 284.85, 23.23 280.88 C21.06 276.92, 19.04 272.87, 17.16 268.76 C15.28 264.66, 13.55 260.47, 11.97 256.24 C10.39 252.01, 8.96 247.71, 7.69 243.38 C6.42 239.05, 5.3 234.66, 4.34 230.25 C3.38 225.83, 2.58 221.38, 1.93 216.91 C1.29 212.44, 0.81 207.93, 0.48 203.43 C0.16 198.93, 0 194.4, 0 189.88 C0 185.37, 0.16 180.84, 0.48 176.34 C0.81 171.83, 1.29 167.33, 1.93 162.86 C2.58 158.39, 3.38 153.93, 4.34 149.52 C5.3 145.11, 6.42 140.72, 7.69 136.39 C8.96 132.05, 10.39 127.76, 11.97 123.53 C13.55 119.29, 15.28 115.11, 17.16 111 C19.04 106.9, 21.06 102.84, 23.23 98.88 C25.39 94.92, 27.7 91.02, 30.14 87.22 C32.58 83.43, 35.17 79.71, 37.87 76.09 C40.58 72.48, 43.42 68.95, 46.38 65.54 C49.34 62.12, 52.42 58.81, 55.62 55.62 C58.81 52.42, 62.12 49.34, 65.54 46.38 C68.95 43.42, 72.48 40.58, 76.09 37.87 C79.71 35.17, 83.43 32.58, 87.22 30.14 C91.02 27.7, 94.92 25.39, 98.88 23.23 C102.84 21.06, 106.9 19.04, 111 17.16 C115.11 15.28, 119.29 13.55, 123.53 11.97 C127.76 10.39, 132.05 8.96, 136.39 7.69 C140.72 6.42, 145.11 5.3, 149.52 4.34 C153.93 3.38, 158.39 2.58, 162.86 1.93 C167.33 1.29, 171.83 0.81, 176.34 0.48 C180.84 0.16, 185.37 0, 189.88 0 C194.4 0, 198.93 0.16, 203.43 0.48 C207.93 0.81, 212.44 1.29, 216.91 1.93 C221.38 2.58, 225.83 3.38, 230.25 4.34 C234.66 5.3, 239.05 6.42, 243.38 7.69 C247.71 8.96, 252.01 10.39, 256.24 11.97 C260.47 13.55, 264.66 15.28, 268.76 17.16 C272.87 19.04, 276.92 21.06, 280.88 23.23 C284.85 25.39, 288.74 27.7, 292.54 30.14 C296.34 32.58, 300.06 35.17, 303.68 37.87 C307.29 40.58, 310.82 43.42, 314.23 46.38 C317.64 49.34, 320.96 52.42, 324.15 55.62 C327.34 58.81, 330.43 62.12, 333.39 65.54 C336.34 68.95, 339.19 72.48, 341.89 76.09 C344.6 79.71, 347.18 83.43, 349.62 87.22 C352.06 91.02, 354.37 94.92, 356.54 98.88 C358.7 102.84, 360.73 106.9, 362.61 111 C364.48 115.11, 366.22 119.29, 367.79 123.53 C369.37 127.76, 370.8 132.05, 372.07 136.39 C373.35 140.72, 374.47 145.11, 375.43 149.52 C376.39 153.93, 377.19 158.39, 377.83 162.86 C378.48 167.33, 378.96 171.83, 379.28 176.34 C379.6 180.84, 379.77 185.37, 379.77 189.88" stroke="transparent" stroke-width="1" fill="none"></path></g></svg>